<svg width="50" height="50" viewBox="0 0 50 50" fill="none" xmlns="http://www.w3.org/2000/svg">
<rect width="50" height="50" fill="white"/>
<path d="M44 48V50H6V48H4V46H2V44H0V6H2V4H4V2H6V0H44V2H46V4H48V6H50V44H48V46H46V48H44Z" fill="#5865F2"/>
<path fill-rule="evenodd" clip-rule="evenodd" d="M12 11V15H10V19H8V23H6V35H10V37H16V35H14V33H36V35H34V37H40V35H44V23H42V19H40V15H38V11H32V13H36V17H34V15H16V17H14V13H18V11H12ZM14 19V17H12V19H14ZM36 19V17H38V19H36ZM21 23H17V24H16V28H17V29H21V28H22V24H21V23ZM33 23H29V24H28V28H29V29H33V28H34V24H33V23Z" fill="white"/>
</svg>
