<svg width="20" height="20" viewBox="0 0 20 20" fill="none" xmlns="http://www.w3.org/2000/svg">
<path d="M7 20H13V19H16V18H17V17H18V15H19V13H20V7H19V5H18V4V3H17V2H16V1H13V0H7V1H4V2H3V3H2V5H1V7H0V10V13H1V15H2V17H3V18H4V19H7V20Z" fill="#FADB3B"/>
<path fill-rule="evenodd" clip-rule="evenodd" d="M7 19V20H13V19H16V18H17V17H18V15H19V13H20V7H19V5H18V3H17V2H16V1H13V0H7V1H4V2H3V3H2V5H1V7H0V13H1V15H2V17H3V18H4V19H7ZM3 16H4V17H5V18H8V19H12V18H15V17H16V16H17V14H18V12H19V8H18V6H17V4H16V3H15V2H12V1H8V2H5V3H4V4H3V6H2V8H1V12H2V14H3V16Z" fill="#B89209"/>
<path d="M10 5H13V6H10V5Z" fill="#D0A50F"/>
<path d="M10 14H13V15H10V14Z" fill="#D0A50F"/>
<path d="M13 13H14V14H13V13Z" fill="#D0A50F"/>
<path d="M13 6H14V7H13V6Z" fill="#D0A50F"/>
<path fill-rule="evenodd" clip-rule="evenodd" d="M9 12H6V15H9V12ZM8 13H7V14H8V13Z" fill="#D0A50F"/>
<path fill-rule="evenodd" clip-rule="evenodd" d="M9 5H6V8H9V5ZM8 6H7V7H8V6Z" fill="#D0A50F"/>
<path fill-rule="evenodd" clip-rule="evenodd" d="M15 8.5H12V11.5H15V8.5ZM14 9.5H13V10.5H14V9.5Z" fill="#D0A50F"/>
</svg>
