<svg width="200" height="47" viewBox="0 0 200 47" fill="none" xmlns="http://www.w3.org/2000/svg">
<path d="M50.6787 33.3147V14.249H69.6832V16.9727H56.1086V22.42H66.9683V25.1437H56.1086V33.3147H50.6787Z" fill="black"/>
<path d="M72.3982 33.3147V14.249H91.4027V16.9727H77.828V22.42H88.6878V25.1437H77.828V30.591H91.4027V33.3147H72.3982Z" fill="black"/>
<path d="M96.8326 33.3147V30.591H94.1176V14.249H99.5475V25.1437H102.262V14.249H104.977V25.1437H107.692V14.249H113.122V30.591H110.407V33.3147H107.692V30.591H104.977V27.8673H102.262V30.591H99.5475V33.3147H96.8326Z" fill="black"/>
<path d="M115.837 33.3147V14.249H121.267V16.9727H123.982V19.6964H126.697V16.9727H129.412V14.249H134.842V33.3147H129.412V22.42H126.697V27.8673H123.982V22.42H121.267V33.3147H115.837Z" fill="black"/>
<path d="M137.557 33.3147V19.6964H140.271V16.9727H142.986V14.249H151.131V16.9727H153.846V19.6964H156.561V33.3147H151.131V27.8673H142.986V33.3147H137.557ZM142.986 25.1437H151.131V19.6964H148.416V16.9727H145.701V19.6964H142.986V25.1437Z" fill="black"/>
<path d="M159.276 33.3147V14.249H164.706V16.9727H167.421V19.6964H170.136V22.42H172.851V14.249H178.281V33.3147H172.851V27.8673H170.136V25.1437H167.421V22.42H164.706V33.3147H159.276Z" fill="black"/>
<path d="M183.71 33.3147V30.591H180.995V27.8673H186.425V30.591H194.57V25.1437H183.71V22.42H180.995V16.9727H183.71V14.249H197.285V16.9727H200V19.6964H194.57V16.9727H186.425V22.42H197.285V25.1437H200V30.591H197.285V33.3147H183.71Z" fill="black"/>
<rect y="34.8279" width="2.41327" height="9.68415" fill="#F973D9"/>
<rect x="2.41333" y="34.8279" width="2.42104" height="9.65308" transform="rotate(-90 2.41333 34.8279)" fill="#F973D9"/>
<rect x="2.41333" y="46.9331" width="2.42105" height="9.65308" transform="rotate(-90 2.41333 46.9331)" fill="#F973D9"/>
<rect x="14.4796" y="44.5117" width="2.41327" height="9.68412" transform="rotate(180 14.4796 44.5117)" fill="#F973D9"/>
<rect y="3.354" width="2.41327" height="9.68415" fill="#00BECA"/>
<rect x="2.41333" y="3.354" width="2.42102" height="9.65308" transform="rotate(-90 2.41333 3.354)" fill="#00BECA"/>
<rect x="2.41333" y="15.4595" width="2.42104" height="9.65308" transform="rotate(-90 2.41333 15.4595)" fill="#00BECA"/>
<rect x="14.4796" y="13.0381" width="2.41327" height="9.68415" transform="rotate(180 14.4796 13.0381)" fill="#00BECA"/>
<rect x="22.9261" y="19.0911" width="2.41327" height="9.68415" fill="#F7DE08"/>
<rect x="25.3394" y="19.0911" width="2.42102" height="9.65308" transform="rotate(-90 25.3394 19.0911)" fill="#F7DE08"/>
<rect x="25.3395" y="31.1963" width="2.42105" height="9.65308" transform="rotate(-90 25.3395 31.1963)" fill="#F7DE08"/>
<rect x="37.4058" y="28.7751" width="2.41327" height="9.68414" transform="rotate(180 37.4058 28.7751)" fill="#F7DE08"/>
<rect x="16.8929" y="38.4595" width="9.65308" height="2.42103" fill="black"/>
<rect x="26.546" y="36.0386" width="2.41327" height="2.42105" fill="black"/>
<rect x="28.9594" y="33.6169" width="2.41327" height="2.42105" fill="black"/>
<rect width="9.65308" height="2.42104" transform="matrix(1 0 0 -1 16.8928 9.40674)" fill="black"/>
<rect width="2.41327" height="2.42103" transform="matrix(1 0 0 -1 26.546 11.8276)" fill="black"/>
<rect width="2.41327" height="2.42104" transform="matrix(1 0 0 -1 28.9592 14.2485)" fill="black"/>
<rect x="28.9594" y="20.3015" width="2.41333" height="2.42102" fill="#F7DE08"/>
<rect x="28.9594" y="25.1436" width="2.41327" height="2.42105" fill="#F7DE08"/>
<rect x="31.3726" y="22.7224" width="2.41327" height="2.42102" fill="#F7DE08"/>
<rect x="26.546" y="22.7224" width="2.41327" height="2.42102" fill="#F7DE08"/>
<rect width="1.20667" height="1.21052" transform="matrix(1 0 0 -1 27.7526 26.3542)" fill="#F7DE08"/>
<rect width="1.20667" height="1.21053" transform="matrix(1 0 0 -1 27.7526 22.7224)" fill="#F7DE08"/>
<rect width="1.20667" height="1.21053" transform="matrix(1 0 0 -1 31.3726 22.7224)" fill="#F7DE08"/>
<rect width="1.20667" height="1.21052" transform="matrix(1 0 0 -1 31.3726 26.3542)" fill="#F7DE08"/>
<rect x="6.03333" y="36.0381" width="2.41333" height="2.42102" fill="#F973D9"/>
<rect x="6.03333" y="40.8799" width="2.41327" height="2.42102" fill="#F973D9"/>
<rect x="8.44666" y="38.459" width="2.41327" height="2.42105" fill="#F973D9"/>
<rect x="3.62" y="38.459" width="2.41327" height="2.42105" fill="#F973D9"/>
<rect width="1.20667" height="1.21051" transform="matrix(1 0 0 -1 4.82654 42.0903)" fill="#F973D9"/>
<rect width="1.20667" height="1.21052" transform="matrix(1 0 0 -1 4.82654 38.459)" fill="#F973D9"/>
<rect width="1.20667" height="1.21052" transform="matrix(1 0 0 -1 8.44666 38.459)" fill="#F973D9"/>
<rect width="1.20667" height="1.21051" transform="matrix(1 0 0 -1 8.44666 42.0903)" fill="#F973D9"/>
<rect x="6.0332" y="4.56445" width="2.41327" height="2.42103" fill="#00BECA"/>
<rect x="6.03308" y="9.40698" width="2.41327" height="2.42103" fill="#00BECA"/>
<rect x="8.44653" y="6.9856" width="2.41327" height="2.42102" fill="#00BECA"/>
<rect x="3.61975" y="6.9856" width="2.41327" height="2.42102" fill="#00BECA"/>
<rect width="1.20667" height="1.21052" transform="matrix(1 0 0 -1 4.82642 10.6172)" fill="#00BECA"/>
<rect width="1.20667" height="1.21052" transform="matrix(1 0 0 -1 4.82642 6.9856)" fill="#00BECA"/>
<rect width="1.20667" height="1.21052" transform="matrix(1 0 0 -1 8.44653 6.9856)" fill="#00BECA"/>
<rect width="1.20667" height="1.21052" transform="matrix(1 0 0 -1 8.44653 10.6172)" fill="#00BECA"/>
</svg>
