<svg width="50" height="50" viewBox="0 0 50 50" fill="none" xmlns="http://www.w3.org/2000/svg">
<rect width="50" height="50" fill="white"/>
<path d="M44 48V50H6V48H4V46H2V44H0V6H2V4H4V2H6V0H44V2H46V4H48V6H50V44H48V46H46V48H44Z" fill="#1DA1F2"/>
<path d="M29 38V36H30H32V35V34H35V32H37V23.9999H39V21.9999H41V19.9999H39V17.9999H37L37 14H35V12H28V14H26V15.9999H24V21.9999H22V19.9999H20V17.9999H18V15.9999H11V17.9999H13V20.9999H15V22.9999H16V23.9999H17V25.9999H19V27.9999H17V29H16V31H14V29H10V31H12V36H13V38H29Z" fill="white"/>
</svg>
